<?xml version="1.0" encoding="UTF-8" standalone="no"?>
<!-- Generator: Adobe Illustrator 16.0.0, SVG Export Plug-In . SVG Version: 6.00 Build 0)  -->

<svg
   version="1.1"
   id="Layer_1"
   x="0px"
   y="0px"
   width="1024px"
   height="1024px"
   viewBox="0 0 1024 1024"
   enable-background="new 0 0 1024 1024"
   xml:space="preserve"
   sodipodi:docname="Lv2C-Logo.svg"
   inkscape:version="1.2.2 (732a01da63, 2022-12-09, custom)"
   xmlns:inkscape="http://www.inkscape.org/namespaces/inkscape"
   xmlns:sodipodi="http://sodipodi.sourceforge.net/DTD/sodipodi-0.dtd"
   xmlns="http://www.w3.org/2000/svg"
   xmlns:svg="http://www.w3.org/2000/svg"><defs
   id="defs3073" /><sodipodi:namedview
   id="namedview3071"
   pagecolor="#ffffff"
   bordercolor="#000000"
   borderopacity="0.25"
   inkscape:showpageshadow="2"
   inkscape:pageopacity="0.0"
   inkscape:pagecheckerboard="0"
   inkscape:deskcolor="#d1d1d1"
   showgrid="false"
   inkscape:lockguides="true"
   inkscape:zoom="0.39013672"
   inkscape:cx="985.55194"
   inkscape:cy="548.52566"
   inkscape:window-width="1920"
   inkscape:window-height="965"
   inkscape:window-x="1440"
   inkscape:window-y="27"
   inkscape:window-maximized="1"
   inkscape:current-layer="Layer_1" />



<g
   id="g4426"
   transform="matrix(1.284589,0,0,1.284589,565.14726,273.38591)"><polygon
     fill="#e0e0e0"
     points="505.525,781 549.629,639 344.867,639 216.732,215 48,215 221.973,781 "
     id="polygon347"
     transform="matrix(0.74915446,0,0,0.76827355,-460.53803,-205.33842)"
     style="fill:#000000;fill-opacity:1" /><polygon
     fill="#e0e0e0"
     points="469.479,435.216 399.46,215 259.373,215 377.44,605.195 556.342,605.809 678.816,215 535.952,215 "
     id="polygon349"
     transform="matrix(0.74915446,0,0,0.76827355,-460.53803,-205.33842)"
     style="fill:#000000;fill-opacity:1" /><g
     aria-label="k"
     id="text2457"
     style="font-weight:900;font-size:682.667px;font-family:Timana;-inkscape-font-specification:'Timana Heavy';fill:#f06060;fill-opacity:1;stroke:#7f7f7f;stroke-width:1.07717;stop-color:#000000"
     transform="matrix(0.85186506,0,-0.09198528,0.84251804,-611.37152,-190.25429)"><path
       d="M 837.14862,176.32638 H 962.7873 l -53.19113,277.90436 94.22883,-99.71932 h 140.6667 L 994.26288,491.23076 1151.9296,691.89752 H 1015.5962 L 894.59617,530.89745 866.12173,692.44925 H 741.43987 Z"
       style="font-style:italic;font-weight:bold;-inkscape-font-specification:'Timana Bold Italic';fill:#f06060;fill-opacity:1"
       id="path2459"
       sodipodi:nodetypes="cccccccccccc" /></g></g></svg>
