<?xml version="1.0" encoding="UTF-8" standalone="no"?>
<!-- Generator: Adobe Illustrator 16.0.0, SVG Export Plug-In . SVG Version: 6.00 Build 0)  -->

<svg
   version="1.1"
   id="Layer_1"
   x="0px"
   y="0px"
   width="1024px"
   height="1024px"
   viewBox="0 0 1024 1024"
   enable-background="new 0 0 1024 1024"
   xml:space="preserve"
   sodipodi:docname="LvkIcon.svg"
   inkscape:version="1.2.2 (732a01da63, 2022-12-09, custom)"
   xmlns:inkscape="http://www.inkscape.org/namespaces/inkscape"
   xmlns:sodipodi="http://sodipodi.sourceforge.net/DTD/sodipodi-0.dtd"
   xmlns="http://www.w3.org/2000/svg"
   xmlns:svg="http://www.w3.org/2000/svg"><defs
   id="defs354" /><sodipodi:namedview
   id="namedview352"
   pagecolor="#ffffff"
   bordercolor="#000000"
   borderopacity="0.25"
   inkscape:showpageshadow="2"
   inkscape:pageopacity="0.0"
   inkscape:pagecheckerboard="0"
   inkscape:deskcolor="#d1d1d1"
   showgrid="false"
   inkscape:lockguides="false"
   inkscape:zoom="0.39013672"
   inkscape:cx="570.31289"
   inkscape:cy="589.53692"
   inkscape:window-width="1920"
   inkscape:window-height="965"
   inkscape:window-x="1440"
   inkscape:window-y="27"
   inkscape:window-maximized="1"
   inkscape:current-layer="Layer_1" />
<path
   d="m 1014.7903,864.56783 c 0,36.35471 -27.62174,65.82619 -61.69465,65.82619 H 77.03245 c -34.072894,0 -61.694596,-29.47148 -61.694596,-65.82619 V 136.09145 c 0,-36.3547 27.621702,-65.826189 61.694596,-65.826189 h 876.0632 c 34.07291,0 61.69465,29.471489 61.69465,65.826189 z"
   id="path339"
   style="stroke-width:1.06212" /><rect
   style="display:none;fill:#f04040;fill-opacity:1;stroke:#7f7f7f;stroke-width:1.07717;stop-color:#000000"
   id="rect1916"
   width="454.84134"
   height="564.83539"
   x="491.94055"
   y="215" />

<polygon
   fill="#e0e0e0"
   points="549.629,639 344.867,639 216.732,215 48,215 221.973,781 505.525,781 "
   id="polygon347"
   transform="matrix(0.99261562,0,0,1.0624483,-33.944522,-29.981763)" />
<polygon
   fill="#e0e0e0"
   points="399.46,215 259.373,215 377.44,605.195 556.342,605.809 678.816,215 535.952,215 469.479,435.216 "
   id="polygon349"
   transform="matrix(0.99261562,0,0,1.0624483,-33.944522,-29.981763)" />
<g
   aria-label="k"
   id="text2457"
   style="font-weight:900;font-size:682.667px;font-family:Timana;-inkscape-font-specification:'Timana Heavy';opacity:1;fill:#f04040;stroke:#7f7f7f;stroke-width:1.07717;stop-color:#000000"
   transform="matrix(1.1287052,0,-0.12187877,1.1651213,-233.79607,-9.1218627)"><path
     d="M 837.14862,176.32638 H 962.7873 l -53.19113,277.90436 94.22883,-99.71932 h 140.6667 L 994.26288,491.23076 1151.9296,691.89752 H 1015.5962 L 894.59617,530.89745 866.12173,692.44925 H 741.43987 Z"
     style="font-style:italic;font-weight:bold;-inkscape-font-specification:'Timana Bold Italic'"
     id="path2459"
     sodipodi:nodetypes="cccccccccccc" /></g></svg>
