<?xml version="1.0" encoding="UTF-8" standalone="no"?>
<!-- Generator: Adobe Illustrator 16.0.0, SVG Export Plug-In . SVG Version: 6.00 Build 0)  -->

<svg
   version="1.1"
   id="Layer_1"
   x="0px"
   y="0px"
   width="1024px"
   height="1024px"
   viewBox="0 0 1024 1024"
   enable-background="new 0 0 1024 1024"
   xml:space="preserve"
   sodipodi:docname="LvkLogoDark.svg"
   inkscape:version="1.2.2 (732a01da63, 2022-12-09, custom)"
   xmlns:inkscape="http://www.inkscape.org/namespaces/inkscape"
   xmlns:sodipodi="http://sodipodi.sourceforge.net/DTD/sodipodi-0.dtd"
   xmlns="http://www.w3.org/2000/svg"
   xmlns:svg="http://www.w3.org/2000/svg"><defs
   id="defs3073" /><sodipodi:namedview
   id="namedview3071"
   pagecolor="#ffffff"
   bordercolor="#000000"
   borderopacity="0.25"
   inkscape:showpageshadow="2"
   inkscape:pageopacity="0.0"
   inkscape:pagecheckerboard="0"
   inkscape:deskcolor="#d1d1d1"
   showgrid="false"
   inkscape:lockguides="true"
   inkscape:zoom="0.39013672"
   inkscape:cx="765.11639"
   inkscape:cy="551.08886"
   inkscape:window-width="1920"
   inkscape:window-height="965"
   inkscape:window-x="1440"
   inkscape:window-y="27"
   inkscape:window-maximized="1"
   inkscape:current-layer="Layer_1" />



<polygon
   fill="#e0e0e0"
   points="344.867,639 216.732,215 48,215 221.973,781 505.525,781 549.629,639 "
   id="polygon347"
   transform="matrix(0.96235558,0,0,0.98691575,-26.454827,9.6104344)"
   style="fill:#8f8f8f;fill-opacity:1" /><polygon
   fill="#e0e0e0"
   points="259.373,215 377.44,605.195 556.342,605.809 678.816,215 535.952,215 469.479,435.216 399.46,215 "
   id="polygon349"
   transform="matrix(0.96235558,0,0,0.98691575,-26.454827,9.6104344)"
   style="fill:#8f8f8f;fill-opacity:1" /><g
   aria-label="k"
   id="text2457"
   style="font-weight:900;font-size:682.667px;font-family:Timana;-inkscape-font-specification:'Timana Heavy';fill:#f06060;fill-opacity:1;stroke:#7f7f7f;stroke-width:1.07717;stop-color:#000000"
   transform="matrix(1.0942965,0,-0.11816328,1.0822894,-220.21387,28.987342)"><path
     d="M 837.14862,176.32638 H 962.7873 l -53.19113,277.90436 94.22883,-99.71932 h 140.6667 L 994.26288,491.23076 1151.9296,691.89752 H 1015.5962 L 894.59617,530.89745 866.12173,692.44925 H 741.43987 Z"
     style="font-style:italic;font-weight:bold;-inkscape-font-specification:'Timana Bold Italic';fill:#f06060;fill-opacity:1"
     id="path2459"
     sodipodi:nodetypes="cccccccccccc" /></g></svg>
