<?xml version="1.0" encoding="UTF-8" standalone="no"?>
<!-- Created with Inkscape (http://www.inkscape.org/) -->

<svg
   width="32.0px"
   height="32.0px"
   viewBox="0 0 32.0 32.0"
   version="1.1"
   id="SVGRoot"
   sodipodi:docname="oo-icon-study-2.svg"
   inkscape:version="1.2.2 (732a01da63, 2022-12-09, custom)"
   xmlns:inkscape="http://www.inkscape.org/namespaces/inkscape"
   xmlns:sodipodi="http://sodipodi.sourceforge.net/DTD/sodipodi-0.dtd"
   xmlns="http://www.w3.org/2000/svg"
   xmlns:svg="http://www.w3.org/2000/svg">
  <sodipodi:namedview
     id="namedview5764"
     pagecolor="#ffffff"
     bordercolor="#000000"
     borderopacity="0.25"
     inkscape:showpageshadow="2"
     inkscape:pageopacity="0.0"
     inkscape:pagecheckerboard="0"
     inkscape:deskcolor="#d1d1d1"
     inkscape:document-units="px"
     showgrid="true"
     inkscape:zoom="14.062462"
     inkscape:cx="35.057873"
     inkscape:cy="20.337833"
     inkscape:window-width="1920"
     inkscape:window-height="1007"
     inkscape:window-x="1440"
     inkscape:window-y="0"
     inkscape:window-maximized="1"
     inkscape:current-layer="layer1">
    <inkscape:grid
       type="xygrid"
       id="grid5770"
       empspacing="4" />
  </sodipodi:namedview>
  <defs
     id="defs5759" />
  <g
     inkscape:label="Layer 1"
     inkscape:groupmode="layer"
     id="layer1">
    <path
       id="path6440-7"
       style="display:none;fill:#b4b4b4;fill-opacity:0.780669;stroke-width:0.966297;-inkscape-stroke:none;stop-color:#000000"
       d="M 17.417219,28.960962 A 13,13 0 0 0 30.419021,15.995461 13,13 0 0 0 17.486982,2.960716 13,13 0 0 0 5.4601716,10.867253 l 4.5174412,0.0352 a 9,9 0 0 1 7.4879692,-3.9417792 9,9 0 0 1 8.953393,9.0251092 9,9 0 0 1 -9.00184,8.975059 9,9 0 0 1 -7.5154812,-4.058677 l -4.5057226,-0.03511 a 13,13 0 0 0 12.0212878,8.093907 z"
       sodipodi:insensitive="true" />
    <path
       id="path5829"
       style="display:none;fill:#b4b4b4;fill-opacity:0.780669;stroke-width:0.305902;-inkscape-stroke:none;stop-color:#000000"
       d="M 17.417072,21.960747 A 6,6 0 0 0 23.41896,15.976078 6,6 0 0 0 17.450021,9.9606401 6,6 0 0 0 12.262742,12.920315 L 0.74160688,12.830549 A 17,17 0 0 0 0.41941477,15.82813 L 0.41807542,16 a 17,17 0 0 0 0.26897245,2.830306 l 11.52894613,0.08983 a 6,6 0 0 0 5.201078,3.040614 z m 0.0019,-3.000076 a 3,3 0 0 1 -3.000215,-2.992216 l 2.37e-4,-0.03125 a 3,3 0 0 1 3.015471,-2.976597 3,3 0 0 1 2.984469,3.00772 3,3 0 0 1 -2.999967,2.992342 z"
       sodipodi:insensitive="true" />
    <path
       id="path7995"
       style="font-variation-settings:normal;opacity:1;vector-effect:none;fill:#cfcfcf;fill-opacity:1;stroke-width:0.698722;stroke-linecap:butt;stroke-linejoin:miter;stroke-miterlimit:4;stroke-dasharray:none;stroke-dashoffset:0;stroke-opacity:1;-inkscape-stroke:none;stop-color:#000000;stop-opacity:1"
       d="M 21.523968,4 C 19.00375,4.02573 16.768251,5.6237434 15.928265,8 H 5 v 4 h 10.926312 c 0.847729,2.397743 3.115014,4.000572 5.658203,4 3.307602,-0.0086 5.984375,-2.692387 5.984375,-6 V 9.9394531 C 27.535604,6.6318334 24.831664,3.9750671 21.523968,4 Z m 0.02148,3 c 1.653855,-0.013011 3.006261,1.3149377 3.023438,2.96875 V 10 c 0,1.653806 -1.338387,2.995693 -2.992188,3 C 19.922885,13.0043 18.577498,11.669424 18.56889,10.015625 18.56019,8.3617937 19.891648,7.012898 21.545452,7 Z m -11.129967,9 c -3.3076026,0.0086 -5.9843754,2.692387 -5.9843754,6 v 0.06055 c 0.03329,3.30762 2.7372257,5.964386 6.0449224,5.939453 2.520218,-0.02573 4.755717,-1.623743 5.595703,-4 H 27 V 20 H 16.073688 c -0.84773,-2.397743 -3.115013,-4.000572 -5.658203,-4 z m 0.0078,3 c 1.653816,-0.0043 2.999204,1.330576 3.007812,2.984375 C 13.43981,23.638206 12.108351,24.987102 10.454548,25 8.8006933,25.01301 7.4482866,23.685062 7.4311096,22.03125 V 22 c 0,-1.653806 1.3383857,-2.995693 2.9921884,-3 z"
       sodipodi:nodetypes="ccccccsccccsccccscccccccccccsc" />
    <path
       id="rect11116-2"
       style="font-variation-settings:normal;display:none;vector-effect:none;fill:#e1e1e1;fill-opacity:1;stroke-width:0.668975;stroke-linecap:butt;stroke-linejoin:miter;stroke-miterlimit:4;stroke-dasharray:none;stroke-dashoffset:0;stroke-opacity:1;-inkscape-stroke:none;stop-color:#000000"
       d="m 4.546875,18 v 12 h 24 v -4 h -7 -0.318359 c -1.685241,1.884441 -4.08535,2.97321 -6.613282,3 C 9.6536885,29.03794 5.5973379,25.053232 5.546875,20.091797 V 20 c 0,-0.68759 0.078544,-1.356545 0.2246094,-2 z" />
    <path
       id="rect11116"
       style="font-variation-settings:normal;display:none;opacity:1;vector-effect:none;fill:#c4c4c4;fill-opacity:1;stroke-width:0.668975;stroke-linecap:butt;stroke-linejoin:miter;stroke-miterlimit:4;stroke-dasharray:none;stroke-dashoffset:0;stroke-opacity:1;-inkscape-stroke:none;stop-color:#000000;stop-opacity:1"
       d="m 4.5,2 v 4 h 7 0.318359 C 13.5036,4.1155585 15.903709,3.0267904 18.431641,3 23.393187,2.9620571 27.449537,6.9467681 27.5,11.908203 V 12 c 0,1.051915 -0.181942,2.06154 -0.513672,3 H 28.5 V 2 Z" />
  </g>
</svg>
