<?xml version="1.0" encoding="UTF-8" standalone="no"?>
<!-- Created with Inkscape (http://www.inkscape.org/) -->

<svg
   width="32.0px"
   height="32.0px"
   viewBox="0 0 32.0 32.0"
   version="1.1"
   id="SVGRoot"
   sodipodi:docname="oo-icon-study.svg"
   inkscape:version="1.2.2 (732a01da63, 2022-12-09, custom)"
   xmlns:inkscape="http://www.inkscape.org/namespaces/inkscape"
   xmlns:sodipodi="http://sodipodi.sourceforge.net/DTD/sodipodi-0.dtd"
   xmlns="http://www.w3.org/2000/svg"
   xmlns:svg="http://www.w3.org/2000/svg">
  <sodipodi:namedview
     id="namedview5764"
     pagecolor="#ffffff"
     bordercolor="#000000"
     borderopacity="0.25"
     inkscape:showpageshadow="2"
     inkscape:pageopacity="0.0"
     inkscape:pagecheckerboard="0"
     inkscape:deskcolor="#d1d1d1"
     inkscape:document-units="px"
     showgrid="true"
     inkscape:zoom="14.062462"
     inkscape:cx="29.724526"
     inkscape:cy="8.8889131"
     inkscape:window-width="1920"
     inkscape:window-height="1007"
     inkscape:window-x="1440"
     inkscape:window-y="0"
     inkscape:window-maximized="1"
     inkscape:current-layer="layer1">
    <inkscape:grid
       type="xygrid"
       id="grid5770"
       empspacing="4" />
  </sodipodi:namedview>
  <defs
     id="defs5759" />
  <g
     inkscape:label="Layer 1"
     inkscape:groupmode="layer"
     id="layer1">
    <path
       id="rect11116-8"
       style="font-variation-settings:normal;display:inline;vector-effect:none;fill:#e05050;fill-opacity:0.560182;stroke-width:0.668975;stroke-linecap:butt;stroke-linejoin:miter;stroke-miterlimit:4;stroke-dasharray:none;stroke-dashoffset:0;stroke-opacity:1;-inkscape-stroke:none;stop-color:#000000"
       d="m 34,-28 v 4 h 7 0.318359 c 1.685242,-1.884443 4.085348,-2.97321 6.613282,-3 4.961551,-0.03794 9.017896,3.946763 9.068359,8.908203 V -18 c 0,4.961424 -4.015155,8.987079 -8.976562,9 -2.556568,-0.0037 -4.990935,-1.094443 -6.695313,-3 H 41 34 v 8 h 24 v -24 z"
       sodipodi:nodetypes="ccccccscccccccc" />
    <path
       id="rect11116-2-9"
       style="font-variation-settings:normal;display:inline;vector-effect:none;fill:#e05050;fill-opacity:0.560182;stroke-width:0.668975;stroke-linecap:butt;stroke-linejoin:miter;stroke-miterlimit:4;stroke-dasharray:none;stroke-dashoffset:0;stroke-opacity:1;-inkscape-stroke:none;stop-color:#000000"
       d="m 58,0 v -4 h -7 -0.318359 c -1.685242,1.884443 -4.085348,2.97321 -6.613282,3 C 39.106808,-0.962057 35.050463,-4.946763 35,-9.908203 V -10 c 0,-4.961424 4.015155,-8.987079 8.976562,-9 2.556568,0.0037 4.990935,1.094443 6.695313,3 H 51 58 v -8 H 34 V 0 Z"
       sodipodi:nodetypes="ccccccscccccccc" />
    <path
       style="font-variation-settings:normal;vector-effect:none;fill:#ba1616;fill-opacity:0.651224;stroke-width:0.769053;stroke-linecap:butt;stroke-linejoin:miter;stroke-miterlimit:4;stroke-dasharray:none;stroke-dashoffset:0;stroke-opacity:1;-inkscape-stroke:none;stop-color:#000000"
       id="path9252-5"
       sodipodi:type="arc"
       sodipodi:cx="46"
       sodipodi:cy="17"
       sodipodi:rx="13"
       sodipodi:ry="13"
       sodipodi:start="0"
       sodipodi:end="6.2730296"
       sodipodi:open="true"
       sodipodi:arc-type="arc"
       d="M 59,17 A 13,13 0 0 1 46.033006,29.999958 13,13 0 0 1 33.000168,17.066012 13,13 0 0 1 45.900983,4.0003771 13,13 0 0 1 58.99933,16.867978" />
    <path
       id="path6440-7"
       style="display:none;fill:#b4b4b4;fill-opacity:0.780669;stroke-width:0.966297;-inkscape-stroke:none;stop-color:#000000"
       d="M 17.417219,28.960962 A 13,13 0 0 0 30.419021,15.995461 13,13 0 0 0 17.486982,2.960716 13,13 0 0 0 5.4601716,10.867253 l 4.5174412,0.0352 a 9,9 0 0 1 7.4879692,-3.9417792 9,9 0 0 1 8.953393,9.0251092 9,9 0 0 1 -9.00184,8.975059 9,9 0 0 1 -7.5154812,-4.058677 l -4.5057226,-0.03511 a 13,13 0 0 0 12.0212878,8.093907 z"
       sodipodi:insensitive="true" />
    <path
       id="path5829"
       style="display:none;fill:#b4b4b4;fill-opacity:0.780669;stroke-width:0.305902;-inkscape-stroke:none;stop-color:#000000"
       d="M 17.417072,21.960747 A 6,6 0 0 0 23.41896,15.976078 6,6 0 0 0 17.450021,9.9606401 6,6 0 0 0 12.262742,12.920315 L 0.74160688,12.830549 A 17,17 0 0 0 0.41941477,15.82813 L 0.41807542,16 a 17,17 0 0 0 0.26897245,2.830306 l 11.52894613,0.08983 a 6,6 0 0 0 5.201078,3.040614 z m 0.0019,-3.000076 a 3,3 0 0 1 -3.000215,-2.992216 l 2.37e-4,-0.03125 a 3,3 0 0 1 3.015471,-2.976597 3,3 0 0 1 2.984469,3.00772 3,3 0 0 1 -2.999967,2.992342 z"
       sodipodi:insensitive="true" />
    <path
       id="path7995"
       style="font-variation-settings:normal;opacity:1;vector-effect:none;fill:#cfcfcf;fill-opacity:1;stroke-width:0.698722;stroke-linecap:butt;stroke-linejoin:miter;stroke-miterlimit:4;stroke-dasharray:none;stroke-dashoffset:0;stroke-opacity:1;-inkscape-stroke:none;stop-color:#000000;stop-opacity:1"
       d="m 18.634765,6.000087 c -2.520221,0.02573 -4.755715,1.623741 -5.595702,4 H 4.6796875 v 4 H 13.03711 c 0.84773,2.397745 3.11501,4.000572 5.658202,4 3.307605,-0.0086 5.984375,-2.692384 5.984375,-6 v -0.06055 C 24.646401,8.631914 21.942464,5.9751541 18.634765,6.000087 Z m 0.02148,3 c 1.653856,-0.013011 3.006265,1.314936 3.023442,2.96875 v 0.03125 c 0,1.653808 -1.338385,2.995693 -2.992187,3 -1.653819,0.0043 -2.999204,-1.330574 -3.007812,-2.984375 -0.0087,-1.653833 1.322756,-3.002727 2.976562,-3.015625 z"
       sodipodi:nodetypes="ccccccsccccscccc" />
    <path
       id="path7995-2"
       style="font-variation-settings:normal;display:inline;vector-effect:none;fill:#cfcfcf;fill-opacity:1;stroke-width:0.698722;stroke-linecap:butt;stroke-linejoin:miter;stroke-miterlimit:4;stroke-dasharray:none;stroke-dashoffset:0;stroke-opacity:1;-inkscape-stroke:none;stop-color:#000000"
       d="m 14.72461,26 c 2.520221,-0.02573 4.755715,-1.623741 5.595702,-4 h 8.359375 v -4 h -8.357422 c -0.847731,-2.397745 -3.115009,-4.000572 -5.658202,-4 -3.307606,0.0086 -5.984375,2.692384 -5.984375,6 v 0.06055 C 8.712978,23.368173 11.416911,26.024933 14.72461,26 Z m -0.02148,-3 c -1.653855,0.01301 -3.006264,-1.314936 -3.023441,-2.96875 V 20 c 0,-1.653808 1.338385,-2.995693 2.992188,-3 1.653818,-0.0043 2.999203,1.330574 3.007811,2.984375 0.0087,1.653833 -1.322756,3.002727 -2.976561,3.015625 z"
       sodipodi:nodetypes="ccccccsccccscccc" />
    <path
       id="rect11116-2"
       style="font-variation-settings:normal;display:inline;vector-effect:none;fill:#e1e1e1;fill-opacity:1;stroke-width:0.668975;stroke-linecap:butt;stroke-linejoin:miter;stroke-miterlimit:4;stroke-dasharray:none;stroke-dashoffset:0;stroke-opacity:1;-inkscape-stroke:none;stop-color:#000000"
       d="m 4.546875,18 v 12 h 24 v -4 h -7 -0.318359 c -1.685241,1.884441 -4.08535,2.97321 -6.613282,3 C 9.6536885,29.03794 5.5973379,25.053232 5.546875,20.091797 V 20 c 0,-0.68759 0.078544,-1.356545 0.2246094,-2 z" />
    <path
       id="rect11116"
       style="font-variation-settings:normal;display:inline;opacity:1;vector-effect:none;fill:#c4c4c4;fill-opacity:1;stroke-width:0.668975;stroke-linecap:butt;stroke-linejoin:miter;stroke-miterlimit:4;stroke-dasharray:none;stroke-dashoffset:0;stroke-opacity:1;-inkscape-stroke:none;stop-color:#000000;stop-opacity:1"
       d="m 4.5,2 v 4 h 7 0.318359 C 13.5036,4.1155585 15.903709,3.0267904 18.431641,3 23.393187,2.9620571 27.449537,6.9467681 27.5,11.908203 V 12 c 0,1.051915 -0.181942,2.06154 -0.513672,3 H 28.5 V 2 Z" />
    <path
       id="rect11116-2-7"
       style="font-variation-settings:normal;display:inline;vector-effect:none;fill:#e05050;fill-opacity:0.406335;stroke-width:0.668975;stroke-linecap:butt;stroke-linejoin:miter;stroke-miterlimit:4;stroke-dasharray:none;stroke-dashoffset:0;stroke-opacity:1;-inkscape-stroke:none;stop-color:#000000"
       d="m -5.953125,-16 v 12 h 24 v -4 h -7 -0.318359 c -1.685241,1.884441 -4.08535,2.97321 -6.613282,3 -4.9615455,0.03794 -9.0178961,-3.946768 -9.068359,-8.908203 V -14 c 0,-0.68759 0.078544,-1.356545 0.2246094,-2 z" />
    <path
       id="rect11116-3"
       style="font-variation-settings:normal;display:inline;vector-effect:none;fill:#5150e0;fill-opacity:0.560182;stroke-width:0.668975;stroke-linecap:butt;stroke-linejoin:miter;stroke-miterlimit:4;stroke-dasharray:none;stroke-dashoffset:0;stroke-opacity:1;-inkscape-stroke:none;stop-color:#000000"
       d="m -6,-32 v 4 h 7 0.318359 c 1.685241,-1.884441 4.08535,-2.97321 6.613282,-3 4.961546,-0.03794 9.017896,3.946768 9.068359,8.908203 V -22 c 0,1.051915 -0.181942,2.06154 -0.513672,3 H 18 v -13 z" />
  </g>
</svg>
